{"asset":{"version":"2.0","generator":"babylon.js glTF exporter for 3dsmax 2020 v20210401.5"},"scene":0,"scenes":[{"nodes":[0]}],"nodes":[{"mesh":0,"name":"Box006"}],"meshes":[{"primitives":[{"attributes":{"POSITION":1,"NORMAL":2,"TEXCOORD_0":3},"indices":0,"material":0},{"attributes":{"POSITION":5,"NORMAL":6,"TEXCOORD_0":7},"indices":4,"material":1}],"name":"Box006"}],"accessors":[{"bufferView":0,"componentType":5123,"count":60,"type":"SCALAR","name":"accessorIndices"},{"bufferView":1,"componentType":5126,"count":60,"max":[0.175000012,0.11431247,0.143184379],"min":[-0.175000012,-0.11431247,-0.143184379],"type":"VEC3","name":"accessorPositions"},{"bufferView":1,"byteOffset":720,"componentType":5126,"count":60,"type":"VEC3","name":"accessorNormals"},{"bufferView":2,"componentType":5126,"count":60,"type":"VEC2","name":"accessorUVs"},{"bufferView":0,"byteOffset":120,"componentType":5123,"count":36,"type":"SCALAR","name":"accessorIndices"},{"bufferView":1,"byteOffset":1440,"componentType":5126,"count":36,"max":[0.169948831,0.11431247,0.143184379],"min":[-0.169948831,0.105687529,-0.143184379],"type":"VEC3","name":"accessorPositions"},{"bufferView":1,"byteOffset":1872,"componentType":5126,"count":36,"type":"VEC3","name":"accessorNormals"},{"bufferView":2,"byteOffset":480,"componentType":5126,"count":36,"type":"VEC2","name":"accessorUVs"}],"bufferViews":[{"buffer":0,"byteLength":192,"name":"bufferViewScalar"},{"buffer":0,"byteOffset":192,"byteLength":2304,"byteStride":12,"name":"bufferViewFloatVec3"},{"buffer":0,"byteOffset":2496,"byteLength":768,"byteStride":8,"name":"bufferViewFloatVec2"}],"buffers":[{"uri":"cardboardBox.bin","byteLength":3264}],"materials":[{"pbrMetallicRoughness":{"baseColorTexture":{"index":0},"metallicFactor":0.0,"roughnessFactor":0.450053632},"name":"05 - Default"},{"pbrMetallicRoughness":{"baseColorTexture":{"index":1},"metallicFactor":0.0,"roughnessFactor":0.450053632},"name":"Material #328"}],"textures":[{"sampler":0,"source":0,"name":"cardboardBox.png"},{"sampler":0,"source":1,"name":"cardboardBoxEdge.png"}],"images":[{"uri":"cardboardBox.png"},{"uri":"cardboardBoxEdge.png"}],"samplers":[{"magFilter":9729,"minFilter":9987}]}