{"asset":{"version":"2.0","generator":"babylon.js glTF exporter for 3dsmax 2020 v20210401.5"},"scene":0,"scenes":[{"nodes":[0,1,2,3,4,5,6,7,8,9,10,11]}],"nodes":[{"mesh":0,"translation":[5.0,0.0,0.0],"name":"Plane001"},{"mesh":1,"translation":[9.5,-0.06519239,-0.7],"name":"bush"},{"mesh":2,"translation":[4.80228138,2.93211222,0.0],"name":"l_point(100)"},{"mesh":3,"translation":[1.5,2.93211222,8.550426],"name":"l_Flicker(100,1,.5,.5)"},{"mesh":4,"translation":[9.5,-0.06519239,0.7],"name":"bush001"},{"mesh":5,"translation":[1.095,0.915,12.494607],"rotation":[-0.9301032,-0.06870085,0.278413862,0.2295084],"scale":[0.821999967,0.821999967,0.821999967],"name":"go_Cog(2,1, 0)001"},{"mesh":6,"translation":[1.81955433,0.7278129,13.9190006],"rotation":[-0.7034744,-0.0715799,0.07158084,0.703474462],"scale":[0.979999959,0.979999959,0.979999959],"name":"go_Cog(2,0)"},{"mesh":7,"translation":[1.004267,1.64022911,13.9256124],"rotation":[-0.625555,-0.329667062,0.329667926,0.625555456],"scale":[0.9,0.9,0.9],"name":"go_Cog(2,0) (1)"},{"mesh":8,"translation":[0.06794125,0.915,13.0701256],"rotation":[-0.379927248,-0.379929125,-0.5963684,0.59636724],"scale":[0.8219999,0.821999967,0.8219999],"name":"go_Cog(2,1)002"},{"mesh":9,"translation":[-1.3812083,0.72,0.46],"rotation":[0.0,-8.742278E-08,0.0,1.0],"name":"StraightStair001"},{"mesh":10,"translation":[0.5080313,2.00188923,2.837853],"rotation":[0.0,0.0,-0.7071067,0.7071068],"name":"Box001"},{"translation":[8.46526,0.0,0.0],"rotation":[0.0,-1.0,0.0,7.54979E-08],"scale":[0.01,0.01,0.01],"name":"go_PlayerSpawn"}],"meshes":[{"primitives":[{"attributes":{"POSITION":1,"NORMAL":2,"TEXCOORD_0":3},"indices":0,"material":0}],"name":"Plane001"},{"primitives":[{"attributes":{"POSITION":5,"NORMAL":6,"TEXCOORD_0":7},"indices":4,"material":1}],"name":"bush"},{"primitives":[{"attributes":{"POSITION":9,"NORMAL":10,"TEXCOORD_0":11},"indices":8}],"name":"l_point(100)"},{"primitives":[{"attributes":{"POSITION":13,"NORMAL":14,"TEXCOORD_0":15},"indices":12}],"name":"l_Flicker(100,1,.5,.5)"},{"primitives":[{"attributes":{"POSITION":17,"NORMAL":18,"TEXCOORD_0":19},"indices":16,"material":1}],"name":"bush001"},{"primitives":[{"attributes":{"POSITION":21,"NORMAL":22,"TEXCOORD_0":23},"indices":20,"material":2}],"name":"go_Cog(2,1, 0)001"},{"primitives":[{"attributes":{"POSITION":25,"NORMAL":26,"TEXCOORD_0":27},"indices":24,"material":2}],"name":"go_Cog(2,0)"},{"primitives":[{"attributes":{"POSITION":29,"NORMAL":30,"TEXCOORD_0":31},"indices":28,"material":2}],"name":"go_Cog(2,0)"},{"primitives":[{"attributes":{"POSITION":33,"NORMAL":34,"TEXCOORD_0":35},"indices":32,"material":2}],"name":"go_Cog(2,1)002"},{"primitives":[{"attributes":{"POSITION":37,"NORMAL":38,"TEXCOORD_0":39},"indices":36,"material":0}],"name":"StraightStair001"},{"primitives":[{"attributes":{"POSITION":41,"NORMAL":42,"TEXCOORD_0":43},"indices":40,"material":3}],"name":"Box001"}],"accessors":[{"bufferView":0,"componentType":5123,"count":66,"type":"SCALAR","name":"accessorIndices"},{"bufferView":1,"componentType":5126,"count":66,"max":[5.0,4.0,14.0],"min":[-5.0,0.0,-1.5],"type":"VEC3","name":"accessorPositions"},{"bufferView":1,"byteOffset":792,"componentType":5126,"count":66,"type":"VEC3","name":"accessorNormals"},{"bufferView":2,"componentType":5126,"count":66,"type":"VEC2","name":"accessorUVs"},{"bufferView":0,"byteOffset":132,"componentType":5123,"count":2256,"type":"SCALAR","name":"accessorIndices"},{"bufferView":1,"byteOffset":1584,"componentType":5126,"count":2256,"max":[0.5,1.0,0.5],"min":[-0.5,0.06519239,-0.5],"type":"VEC3","name":"accessorPositions"},{"bufferView":1,"byteOffset":28656,"componentType":5126,"count":2256,"type":"VEC3","name":"accessorNormals"},{"bufferView":2,"byteOffset":528,"componentType":5126,"count":2256,"type":"VEC2","name":"accessorUVs"},{"bufferView":0,"byteOffset":4644,"componentType":5123,"count":24,"type":"SCALAR","name":"accessorIndices"},{"bufferView":1,"byteOffset":55728,"componentType":5126,"count":24,"max":[0.5,0.5,0.5],"min":[-0.5,-0.5,-0.5],"type":"VEC3","name":"accessorPositions"},{"bufferView":1,"byteOffset":56016,"componentType":5126,"count":24,"type":"VEC3","name":"accessorNormals"},{"bufferView":2,"byteOffset":18576,"componentType":5126,"count":24,"type":"VEC2","name":"accessorUVs"},{"bufferView":0,"byteOffset":4692,"componentType":5123,"count":24,"type":"SCALAR","name":"accessorIndices"},{"bufferView":1,"byteOffset":56304,"componentType":5126,"count":24,"max":[0.5,0.5,0.5],"min":[-0.5,-0.5,-0.5],"type":"VEC3","name":"accessorPositions"},{"bufferView":1,"byteOffset":56592,"componentType":5126,"count":24,"type":"VEC3","name":"accessorNormals"},{"bufferView":2,"byteOffset":18768,"componentType":5126,"count":24,"type":"VEC2","name":"accessorUVs"},{"bufferView":0,"byteOffset":4740,"componentType":5123,"count":2256,"type":"SCALAR","name":"accessorIndices"},{"bufferView":1,"byteOffset":56880,"componentType":5126,"count":2256,"max":[0.5,1.0,0.5],"min":[-0.5,0.06519239,-0.5],"type":"VEC3","name":"accessorPositions"},{"bufferView":1,"byteOffset":83952,"componentType":5126,"count":2256,"type":"VEC3","name":"accessorNormals"},{"bufferView":2,"byteOffset":18960,"componentType":5126,"count":2256,"type":"VEC2","name":"accessorUVs"},{"bufferView":0,"byteOffset":9252,"componentType":5123,"count":552,"type":"SCALAR","name":"accessorIndices"},{"bufferView":1,"byteOffset":111024,"componentType":5126,"count":552,"max":[0.466148734,0.08265264,0.466148823],"min":[-0.4661487,-0.08265264,-0.466148853],"type":"VEC3","name":"accessorPositions"},{"bufferView":1,"byteOffset":117648,"componentType":5126,"count":552,"type":"VEC3","name":"accessorNormals"},{"bufferView":2,"byteOffset":37008,"componentType":5126,"count":552,"type":"VEC2","name":"accessorUVs"},{"bufferView":0,"byteOffset":10356,"componentType":5123,"count":552,"type":"SCALAR","name":"accessorIndices"},{"bufferView":1,"byteOffset":124272,"componentType":5126,"count":552,"max":[0.466148734,0.08265264,0.466148823],"min":[-0.4661487,-0.08265264,-0.466148853],"type":"VEC3","name":"accessorPositions"},{"bufferView":1,"byteOffset":130896,"componentType":5126,"count":552,"type":"VEC3","name":"accessorNormals"},{"bufferView":2,"byteOffset":41424,"componentType":5126,"count":552,"type":"VEC2","name":"accessorUVs"},{"bufferView":0,"byteOffset":11460,"componentType":5123,"count":552,"type":"SCALAR","name":"accessorIndices"},{"bufferView":1,"byteOffset":137520,"componentType":5126,"count":552,"max":[0.466148734,0.08265264,0.466148823],"min":[-0.4661487,-0.08265264,-0.466148853],"type":"VEC3","name":"accessorPositions"},{"bufferView":1,"byteOffset":144144,"componentType":5126,"count":552,"type":"VEC3","name":"accessorNormals"},{"bufferView":2,"byteOffset":45840,"componentType":5126,"count":552,"type":"VEC2","name":"accessorUVs"},{"bufferView":0,"byteOffset":12564,"componentType":5123,"count":552,"type":"SCALAR","name":"accessorIndices"},{"bufferView":1,"byteOffset":150768,"componentType":5126,"count":552,"max":[0.466148734,0.08265264,0.466148823],"min":[-0.4661487,-0.08265264,-0.466148853],"type":"VEC3","name":"accessorPositions"},{"bufferView":1,"byteOffset":157392,"componentType":5126,"count":552,"type":"VEC3","name":"accessorNormals"},{"bufferView":2,"byteOffset":50256,"componentType":5126,"count":552,"type":"VEC2","name":"accessorUVs"},{"bufferView":0,"byteOffset":13668,"componentType":5123,"count":138,"type":"SCALAR","name":"accessorIndices"},{"bufferView":1,"byteOffset":164016,"componentType":5126,"count":138,"max":[1.38120854,6.27569,1.0419997],"min":[-1.12500024,-0.884584,-1.96000028],"type":"VEC3","name":"accessorPositions"},{"bufferView":1,"byteOffset":165672,"componentType":5126,"count":138,"type":"VEC3","name":"accessorNormals"},{"bufferView":2,"byteOffset":54672,"componentType":5126,"count":138,"type":"VEC2","name":"accessorUVs"},{"bufferView":0,"byteOffset":13944,"componentType":5123,"count":30,"type":"SCALAR","name":"accessorIndices"},{"bufferView":1,"byteOffset":167328,"componentType":5126,"count":30,"max":[0.49999994,0.5080305,0.6050057],"min":[-0.50000006,-0.5080305,-0.6050057],"type":"VEC3","name":"accessorPositions"},{"bufferView":1,"byteOffset":167688,"componentType":5126,"count":30,"type":"VEC3","name":"accessorNormals"},{"bufferView":2,"byteOffset":55776,"componentType":5126,"count":30,"type":"VEC2","name":"accessorUVs"}],"bufferViews":[{"buffer":0,"byteLength":14004,"name":"bufferViewScalar"},{"buffer":0,"byteOffset":14004,"byteLength":168048,"byteStride":12,"name":"bufferViewFloatVec3"},{"buffer":0,"byteOffset":182052,"byteLength":56016,"byteStride":8,"name":"bufferViewFloatVec2"}],"buffers":[{"uri":"hallway.bin","byteLength":238068}],"materials":[{"pbrMetallicRoughness":{"baseColorTexture":{"index":0},"metallicFactor":0.0,"roughnessFactor":0.450053632},"name":"01 - Default"},{"pbrMetallicRoughness":{"baseColorTexture":{"index":1},"metallicFactor":0.0,"roughnessFactor":0.450053632},"name":"02 - Default"},{"pbrMetallicRoughness":{"baseColorTexture":{"index":2},"metallicFactor":0.0,"roughnessFactor":0.450053632},"name":"Material #1"},{"pbrMetallicRoughness":{"baseColorTexture":{"index":3},"metallicFactor":0.0,"roughnessFactor":0.450053632},"name":"03 - Default"}],"textures":[{"sampler":0,"source":0,"name":"tileFloor.png"},{"sampler":0,"source":1,"name":"grass2.png"},{"sampler":0,"source":2,"name":"dirty metal.png"},{"sampler":0,"source":3,"name":"wood.png"}],"images":[{"uri":"tileFloor.png"},{"uri":"grass2.png"},{"uri":"dirty metal.png"},{"uri":"wood.png"}],"samplers":[{"magFilter":9729,"minFilter":9987}]}