{"asset":{"version":"2.0","generator":"babylon.js glTF exporter for 3dsmax 2020 v20210401.5"},"scene":0,"scenes":[{"nodes":[0]}],"nodes":[{"children":[1,2,6,8],"scale":[0.01,0.01,0.01],"name":"toolbox"},{"mesh":0,"translation":[-0.0102996826,14.1175747,0.2468562],"rotation":[0.0,0.0,0.7071068,0.7071067],"scale":[100.0,100.0,100.0],"name":"handle"},{"children":[3,4,5],"translation":[-0.0104055405,2.356453,-12.5999975],"name":"lock"},{"mesh":1,"translation":[1.16251552,1.1774354,0.2677374],"rotation":[0.0,-1.0,0.0,-7.54978942E-08],"scale":[246.394562,246.394562,100.0],"name":"Box008"},{"mesh":2,"translation":[1.16251552,1.1774354,0.5616741],"rotation":[0.0,-1.0,0.0,-4.84386965E-06],"scale":[246.394562,246.394562,100.0],"name":"Object003"},{"mesh":3,"translation":[0.372713059,-0.645695,-0.0322265625],"rotation":[0.0,0.0,-0.382683456,0.9238795],"name":"Cylinder007"},{"children":[7],"translation":[0.659563065,3.44288349,12.8177328],"name":"hinge"},{"mesh":4,"translation":[-0.669862747,4.76837158E-07,4.76837158E-06],"rotation":[0.7071076,0.0,0.0,0.707105935],"scale":[100.0,100.000015,100.000015],"name":"Box007"},{"mesh":5,"translation":[0.0,-16.6532478,0.217733368],"scale":[100.0,100.0,100.0],"name":"box"}],"meshes":[{"primitives":[{"attributes":{"POSITION":1,"NORMAL":2,"TEXCOORD_0":3},"indices":0,"material":0}],"name":"handle"},{"primitives":[{"attributes":{"POSITION":5,"NORMAL":6,"TEXCOORD_0":7},"indices":4,"material":0}],"name":"Box008"},{"primitives":[{"attributes":{"POSITION":9,"NORMAL":10,"TEXCOORD_0":11},"indices":8,"material":0}],"name":"Object003"},{"primitives":[{"attributes":{"POSITION":13,"NORMAL":14,"TEXCOORD_0":15},"indices":12,"material":0}],"name":"Cylinder007"},{"primitives":[{"attributes":{"POSITION":17,"NORMAL":18,"TEXCOORD_0":19},"indices":16,"material":0}],"name":"Box007"},{"primitives":[{"attributes":{"POSITION":21,"NORMAL":22,"TEXCOORD_0":23},"indices":20,"material":1}],"name":"box"}],"accessors":[{"bufferView":0,"componentType":5123,"count":186,"type":"SCALAR","name":"accessorIndices"},{"bufferView":1,"componentType":5126,"count":186,"max":[0.0253567472,0.0944609046,0.00665739551],"min":[-0.02535679,-0.09446135,-0.006657396],"type":"VEC3","name":"accessorPositions"},{"bufferView":1,"byteOffset":2232,"componentType":5126,"count":186,"type":"VEC3","name":"accessorNormals"},{"bufferView":2,"componentType":5126,"count":186,"type":"VEC2","name":"accessorUVs"},{"bufferView":0,"byteOffset":372,"componentType":5123,"count":192,"type":"SCALAR","name":"accessorIndices"},{"bufferView":1,"byteOffset":4464,"componentType":5126,"count":192,"max":[0.0114362072,0.005000001,0.00106535933],"min":[-0.00200000172,-0.0139378412,-0.000500000664],"type":"VEC3","name":"accessorPositions"},{"bufferView":1,"byteOffset":6768,"componentType":5126,"count":192,"type":"VEC3","name":"accessorNormals"},{"bufferView":2,"byteOffset":1488,"componentType":5126,"count":192,"type":"VEC2","name":"accessorUVs"},{"bufferView":0,"byteOffset":756,"componentType":5123,"count":246,"type":"SCALAR","name":"accessorIndices"},{"bufferView":1,"byteOffset":9072,"componentType":5126,"count":246,"max":[0.00780426944,0.00385456346,0.008794096],"min":[0.001631897,-0.014557316,0.00401279237],"type":"VEC3","name":"accessorPositions"},{"bufferView":1,"byteOffset":12024,"componentType":5126,"count":246,"type":"VEC3","name":"accessorNormals"},{"bufferView":2,"byteOffset":3024,"componentType":5126,"count":246,"type":"VEC2","name":"accessorUVs"},{"bufferView":0,"byteOffset":1248,"componentType":5123,"count":126,"type":"SCALAR","name":"accessorIndices"},{"bufferView":1,"byteOffset":14976,"componentType":5126,"count":126,"max":[0.1,2.29276562,0.0866028145],"min":[-2.81910467,-0.626338959,-0.08660254],"type":"VEC3","name":"accessorPositions"},{"bufferView":1,"byteOffset":16488,"componentType":5126,"count":126,"type":"VEC3","name":"accessorNormals"},{"bufferView":2,"byteOffset":4992,"componentType":5126,"count":126,"type":"VEC2","name":"accessorUVs"},{"bufferView":0,"byteOffset":1500,"componentType":5123,"count":132,"type":"SCALAR","name":"accessorIndices"},{"bufferView":1,"byteOffset":18000,"componentType":5126,"count":132,"max":[0.02390854,0.0009999534,0.0100000044],"min":[-0.0105112838,-0.00100004673,-0.009999995],"type":"VEC3","name":"accessorPositions"},{"bufferView":1,"byteOffset":19584,"componentType":5126,"count":132,"type":"VEC3","name":"accessorNormals"},{"bufferView":2,"byteOffset":6000,"componentType":5126,"count":132,"type":"VEC2","name":"accessorUVs"},{"bufferView":0,"byteOffset":1764,"componentType":5123,"count":96,"type":"SCALAR","name":"accessorIndices"},{"bufferView":1,"byteOffset":21168,"componentType":5126,"count":96,"max":[0.25,0.2832718,0.125],"min":[-0.25,0.0,-0.125],"type":"VEC3","name":"accessorPositions"},{"bufferView":1,"byteOffset":22320,"componentType":5126,"count":96,"type":"VEC3","name":"accessorNormals"},{"bufferView":2,"byteOffset":7056,"componentType":5126,"count":96,"type":"VEC2","name":"accessorUVs"}],"bufferViews":[{"buffer":0,"byteLength":1956,"name":"bufferViewScalar"},{"buffer":0,"byteOffset":1956,"byteLength":23472,"byteStride":12,"name":"bufferViewFloatVec3"},{"buffer":0,"byteOffset":25428,"byteLength":7824,"byteStride":8,"name":"bufferViewFloatVec2"}],"buffers":[{"uri":"toolbox.bin","byteLength":33252}],"materials":[{"pbrMetallicRoughness":{"baseColorTexture":{"index":0},"metallicFactor":0.0,"roughnessFactor":0.450053632},"name":"Material #102"},{"pbrMetallicRoughness":{"baseColorTexture":{"index":1},"metallicFactor":0.0,"roughnessFactor":0.450053632},"name":"door hinge material"}],"textures":[{"sampler":0,"source":0,"name":"silver metal.png"},{"sampler":0,"source":1,"name":"orangeRustedMetal.png"}],"images":[{"uri":"silver metal.png"},{"uri":"orangeRustedMetal.png"}],"samplers":[{"magFilter":9729,"minFilter":9987}]}