{"asset":{"version":"2.0","generator":"babylon.js glTF exporter for 3dsmax 2020 v20210401.5"},"scene":0,"scenes":[{"nodes":[0]}],"nodes":[{"mesh":0,"translation":[0.0,0.367855549,0.0],"name":"Plane001"}],"meshes":[{"primitives":[{"attributes":{"POSITION":1,"NORMAL":2,"TEXCOORD_0":3},"indices":0,"material":0}],"name":"Plane001"}],"accessors":[{"bufferView":0,"componentType":5123,"count":36,"type":"SCALAR","name":"accessorIndices"},{"bufferView":1,"componentType":5126,"count":36,"max":[1.010775,0.8687543,1.135211],"min":[-0.7325,-0.868754447,-0.883669],"type":"VEC3","name":"accessorPositions"},{"bufferView":1,"byteOffset":432,"componentType":5126,"count":36,"type":"VEC3","name":"accessorNormals"},{"bufferView":2,"componentType":5126,"count":36,"type":"VEC2","name":"accessorUVs"}],"bufferViews":[{"buffer":0,"byteLength":72,"name":"bufferViewScalar"},{"buffer":0,"byteOffset":72,"byteLength":864,"byteStride":12,"name":"bufferViewFloatVec3"},{"buffer":0,"byteOffset":936,"byteLength":288,"byteStride":8,"name":"bufferViewFloatVec2"}],"buffers":[{"uri":"foliageGrass.bin","byteLength":1224}],"materials":[{"pbrMetallicRoughness":{"baseColorTexture":{"index":0},"metallicFactor":0.0,"roughnessFactor":0.450053632},"name":"01 - Default"}],"textures":[{"sampler":0,"source":0,"name":"foliage grass.png"}],"images":[{"uri":"foliage grass.png"}],"samplers":[{"magFilter":9729,"minFilter":9987}]}