{"asset":{"version":"2.0","generator":"babylon.js glTF exporter for 3dsmax 2020 v20210401.5"},"scene":0,"scenes":[{"nodes":[0]}],"nodes":[{"mesh":0,"scale":[0.99999994,0.99999994,0.99999994],"name":"Box001"}],"meshes":[{"primitives":[{"attributes":{"POSITION":1,"NORMAL":2,"TEXCOORD_0":3},"indices":0,"material":0},{"attributes":{"POSITION":5,"NORMAL":6,"TEXCOORD_0":7},"indices":4,"material":1}],"name":"Box001"}],"accessors":[{"bufferView":0,"componentType":5123,"count":30,"type":"SCALAR","name":"accessorIndices"},{"bufferView":1,"componentType":5126,"count":30,"max":[0.0430500023,0.231035009,0.154262513],"min":[-0.0430500023,-0.231035009,-0.154262513],"type":"VEC3","name":"accessorPositions"},{"bufferView":1,"byteOffset":360,"componentType":5126,"count":30,"type":"VEC3","name":"accessorNormals"},{"bufferView":2,"componentType":5126,"count":30,"type":"VEC2","name":"accessorUVs"},{"bufferView":0,"byteOffset":60,"componentType":5123,"count":30,"type":"SCALAR","name":"accessorIndices"},{"bufferView":1,"byteOffset":720,"componentType":5126,"count":30,"max":[0.0430500023,0.231035009,0.154262513],"min":[-0.0430500023,-0.231035009,-0.154262513],"type":"VEC3","name":"accessorPositions"},{"bufferView":1,"byteOffset":1080,"componentType":5126,"count":30,"type":"VEC3","name":"accessorNormals"},{"bufferView":2,"byteOffset":240,"componentType":5126,"count":30,"type":"VEC2","name":"accessorUVs"}],"bufferViews":[{"buffer":0,"byteLength":120,"name":"bufferViewScalar"},{"buffer":0,"byteOffset":120,"byteLength":1440,"byteStride":12,"name":"bufferViewFloatVec3"},{"buffer":0,"byteOffset":1560,"byteLength":480,"byteStride":8,"name":"bufferViewFloatVec2"}],"buffers":[{"uri":"book.bin","byteLength":2040}],"materials":[{"pbrMetallicRoughness":{"baseColorTexture":{"index":0},"metallicFactor":0.0,"roughnessFactor":0.450053632},"name":"01 - Default"},{"pbrMetallicRoughness":{"baseColorTexture":{"index":1},"metallicFactor":0.0,"roughnessFactor":0.450053632},"name":"Material #11"}],"textures":[{"sampler":0,"source":0,"name":"bookCover.png"},{"sampler":0,"source":1,"name":"bookSide.png"}],"images":[{"uri":"bookCover.png"},{"uri":"bookSide.png"}],"samplers":[{"magFilter":9729,"minFilter":9987}]}