{"asset":{"version":"2.0","generator":"babylon.js glTF exporter for 3dsmax 2020 v20210401.5"},"scene":0,"scenes":[{"nodes":[0]}],"nodes":[{"mesh":0,"name":"ChamferBox001"}],"meshes":[{"primitives":[{"attributes":{"POSITION":1,"NORMAL":2,"TEXCOORD_0":3},"indices":0,"material":0}],"name":"ChamferBox001"}],"accessors":[{"bufferView":0,"componentType":5123,"count":324,"type":"SCALAR","name":"accessorIndices"},{"bufferView":1,"componentType":5126,"count":324,"max":[1.0,0.25,1.0],"min":[-1.0,-0.25,-1.0],"type":"VEC3","name":"accessorPositions"},{"bufferView":1,"byteOffset":3888,"componentType":5126,"count":324,"type":"VEC3","name":"accessorNormals"},{"bufferView":2,"componentType":5126,"count":324,"type":"VEC2","name":"accessorUVs"}],"bufferViews":[{"buffer":0,"byteLength":648,"name":"bufferViewScalar"},{"buffer":0,"byteOffset":648,"byteLength":7776,"byteStride":12,"name":"bufferViewFloatVec3"},{"buffer":0,"byteOffset":8424,"byteLength":2592,"byteStride":8,"name":"bufferViewFloatVec2"}],"buffers":[{"uri":"movingPlatform.bin","byteLength":11016}],"materials":[{"pbrMetallicRoughness":{"baseColorTexture":{"index":0},"metallicFactor":0.0,"roughnessFactor":0.450053632},"name":"01 - Default"}],"textures":[{"sampler":0,"source":0,"name":"metal.png"}],"images":[{"uri":"metal.png"}],"samplers":[{"magFilter":9729,"minFilter":9987}]}