{"asset":{"version":"2.0","generator":"babylon.js glTF exporter for 3dsmax 2020 v20210401.5"},"scene":0,"scenes":[{"nodes":[0]}],"nodes":[{"children":[1,2],"name":"cleaningSolution"},{"mesh":0,"translation":[0.005913779,-0.0103028566,0.0201635361],"rotation":[-1.1520234E-07,-0.7071068,0.7071068,-1.15202333E-07],"name":"body"},{"mesh":1,"translation":[-0.007080987,0.177893311,-0.021109581],"rotation":[-5.3385083E-08,-0.7071068,0.7071068,-5.3385083E-08],"name":"cap"}],"meshes":[{"primitives":[{"attributes":{"POSITION":1,"NORMAL":2,"TEXCOORD_0":3},"indices":0,"material":0}],"name":"body"},{"primitives":[{"attributes":{"POSITION":5,"NORMAL":6,"TEXCOORD_0":7},"indices":4,"material":1},{"attributes":{"POSITION":9,"NORMAL":10,"TEXCOORD_0":11},"indices":8,"material":2},{"attributes":{"POSITION":13,"NORMAL":14,"TEXCOORD_0":15},"indices":12,"material":3}],"name":"cap"}],"accessors":[{"bufferView":0,"componentType":5123,"count":666,"type":"SCALAR","name":"accessorIndices"},{"bufferView":1,"componentType":5126,"count":666,"max":[0.101509094,0.04,0.218940377],"min":[-0.08391762,-2.177699E-09,-0.228008509],"type":"VEC3","name":"accessorPositions"},{"bufferView":1,"byteOffset":7992,"componentType":5126,"count":666,"type":"VEC3","name":"accessorNormals"},{"bufferView":2,"componentType":5126,"count":666,"type":"VEC2","name":"accessorUVs"},{"bufferView":0,"byteOffset":1332,"componentType":5123,"count":546,"type":"SCALAR","name":"accessorIndices"},{"bufferView":1,"byteOffset":15984,"componentType":5126,"count":546,"max":[0.06779501,0.000918068,0.0483918265],"min":[-0.101927124,-0.04313728,-0.05134966],"type":"VEC3","name":"accessorPositions"},{"bufferView":1,"byteOffset":22536,"componentType":5126,"count":546,"type":"VEC3","name":"accessorNormals"},{"bufferView":2,"byteOffset":5328,"componentType":5126,"count":546,"type":"VEC2","name":"accessorUVs"},{"bufferView":0,"byteOffset":2424,"componentType":5123,"count":18,"type":"SCALAR","name":"accessorIndices"},{"bufferView":1,"byteOffset":29088,"componentType":5126,"count":18,"max":[-0.101557583,-0.008777939,-0.0180581249],"min":[-0.101927124,-0.033441402,-0.04185125],"type":"VEC3","name":"accessorPositions"},{"bufferView":1,"byteOffset":29304,"componentType":5126,"count":18,"type":"VEC3","name":"accessorNormals"},{"bufferView":2,"byteOffset":9696,"componentType":5126,"count":18,"type":"VEC2","name":"accessorUVs"},{"bufferView":0,"byteOffset":2460,"componentType":5123,"count":66,"type":"SCALAR","name":"accessorIndices"},{"bufferView":1,"byteOffset":29520,"componentType":5126,"count":66,"max":[-0.0402440354,-0.0100095067,0.05865437],"min":[-0.102677092,-0.032109607,-0.009833671],"type":"VEC3","name":"accessorPositions"},{"bufferView":1,"byteOffset":30312,"componentType":5126,"count":66,"type":"VEC3","name":"accessorNormals"},{"bufferView":2,"byteOffset":9840,"componentType":5126,"count":66,"type":"VEC2","name":"accessorUVs"}],"bufferViews":[{"buffer":0,"byteLength":2592,"name":"bufferViewScalar"},{"buffer":0,"byteOffset":2592,"byteLength":31104,"byteStride":12,"name":"bufferViewFloatVec3"},{"buffer":0,"byteOffset":33696,"byteLength":10368,"byteStride":8,"name":"bufferViewFloatVec2"}],"buffers":[{"uri":"cleaningSolution.bin","byteLength":44064}],"materials":[{"pbrMetallicRoughness":{"baseColorTexture":{"index":0},"metallicFactor":0.0,"roughnessFactor":0.450053632},"name":"30 - Default"},{"pbrMetallicRoughness":{"baseColorTexture":{"index":1},"metallicFactor":0.0,"roughnessFactor":0.450053632},"name":"04 - Default"},{"pbrMetallicRoughness":{"baseColorTexture":{"index":2},"metallicFactor":0.0,"roughnessFactor":0.450053632},"name":"Material #287"},{"pbrMetallicRoughness":{"baseColorTexture":{"index":3},"metallicFactor":0.0,"roughnessFactor":0.450053632},"name":"Material #288"}],"textures":[{"sampler":0,"source":0,"name":"bottle.png"},{"sampler":0,"source":1,"name":"whitePlastic2.png"},{"sampler":0,"source":2,"name":"sinkFaucetHead.png"},{"sampler":0,"source":3,"name":"redPlastic.png"}],"images":[{"uri":"bottle.png"},{"uri":"whitePlastic2.png"},{"uri":"sinkFaucetHead.png"},{"uri":"redPlastic.png"}],"samplers":[{"magFilter":9729,"minFilter":9987}]}