{"asset":{"version":"2.0","generator":"babylon.js glTF exporter for 3dsmax 2020 v20210401.5"},"scene":0,"scenes":[{"nodes":[0]}],"nodes":[{"mesh":0,"translation":[2.979823E-08,2.13162838E-14,4.057199E-12],"rotation":[-7.15255737E-07,6.594219E-07,4.716553E-13,1.0],"name":"Circle001"}],"meshes":[{"primitives":[{"attributes":{"POSITION":1,"NORMAL":2,"TEXCOORD_0":3},"indices":0,"material":0}],"name":"Circle001"}],"accessors":[{"bufferView":0,"componentType":5123,"count":552,"type":"SCALAR","name":"accessorIndices"},{"bufferView":1,"componentType":5126,"count":552,"max":[0.466148734,0.08265264,0.466148823],"min":[-0.4661487,-0.08265264,-0.466148853],"type":"VEC3","name":"accessorPositions"},{"bufferView":1,"byteOffset":6624,"componentType":5126,"count":552,"type":"VEC3","name":"accessorNormals"},{"bufferView":2,"componentType":5126,"count":552,"type":"VEC2","name":"accessorUVs"}],"bufferViews":[{"buffer":0,"byteLength":1104,"name":"bufferViewScalar"},{"buffer":0,"byteOffset":1104,"byteLength":13248,"byteStride":12,"name":"bufferViewFloatVec3"},{"buffer":0,"byteOffset":14352,"byteLength":4416,"byteStride":8,"name":"bufferViewFloatVec2"}],"buffers":[{"uri":"cog.bin","byteLength":18768}],"materials":[{"pbrMetallicRoughness":{"baseColorTexture":{"index":0},"metallicFactor":0.0,"roughnessFactor":0.450053632},"name":"01 - Default"}],"textures":[{"sampler":0,"source":0,"name":"dirty metal.png"}],"images":[{"uri":"dirty metal.png"}],"samplers":[{"magFilter":9729,"minFilter":9987}]}