{"asset":{"version":"2.0","generator":"babylon.js glTF exporter for 3dsmax 2020 v20210401.5"},"scene":0,"scenes":[{"nodes":[0]}],"nodes":[{"mesh":0,"name":"paperTowel001"}],"meshes":[{"primitives":[{"attributes":{"POSITION":1,"NORMAL":2,"TEXCOORD_0":3},"indices":0,"material":0},{"attributes":{"POSITION":5,"NORMAL":6,"TEXCOORD_0":7},"indices":4,"material":1}],"name":"paperTowel001"}],"accessors":[{"bufferView":0,"componentType":5123,"count":384,"type":"SCALAR","name":"accessorIndices"},{"bufferView":1,"componentType":5126,"count":384,"max":[0.109396443,0.140000284,0.109396279],"min":[-0.109396085,-0.140000343,-0.109396271],"type":"VEC3","name":"accessorPositions"},{"bufferView":1,"byteOffset":4608,"componentType":5126,"count":384,"type":"VEC3","name":"accessorNormals"},{"bufferView":2,"componentType":5126,"count":384,"type":"VEC2","name":"accessorUVs"},{"bufferView":0,"byteOffset":768,"componentType":5123,"count":96,"type":"SCALAR","name":"accessorIndices"},{"bufferView":1,"byteOffset":9216,"componentType":5126,"count":96,"max":[0.02520354,0.1400001,0.0252034068],"min":[-0.0252031758,-0.14000006,-0.0252033472],"type":"VEC3","name":"accessorPositions"},{"bufferView":1,"byteOffset":10368,"componentType":5126,"count":96,"type":"VEC3","name":"accessorNormals"},{"bufferView":2,"byteOffset":3072,"componentType":5126,"count":96,"type":"VEC2","name":"accessorUVs"}],"bufferViews":[{"buffer":0,"byteLength":960,"name":"bufferViewScalar"},{"buffer":0,"byteOffset":960,"byteLength":11520,"byteStride":12,"name":"bufferViewFloatVec3"},{"buffer":0,"byteOffset":12480,"byteLength":3840,"byteStride":8,"name":"bufferViewFloatVec2"}],"buffers":[{"uri":"paperTowelRoll.bin","byteLength":16320}],"materials":[{"pbrMetallicRoughness":{"baseColorTexture":{"index":0},"metallicFactor":0.0,"roughnessFactor":0.450053632},"name":"20 - Default"},{"pbrMetallicRoughness":{"baseColorTexture":{"index":1},"metallicFactor":0.0,"roughnessFactor":0.450053632},"name":"Material #249"}],"textures":[{"sampler":0,"source":0,"name":"paperTowel.png"},{"sampler":0,"source":1,"name":"cardboard.png"}],"images":[{"uri":"paperTowel.png"},{"uri":"cardboard.png"}],"samplers":[{"magFilter":9729,"minFilter":9987}]}